<?xml version="1.0" encoding="utf-8"?>
<!-- Generator: Adobe Illustrator 19.2.1, SVG Export Plug-In . SVG Version: 6.00 Build 0)  -->
<svg version="1.1" xmlns="http://www.w3.org/2000/svg" xmlns:xlink="http://www.w3.org/1999/xlink" x="0px" y="0px"
	 viewBox="0 0 431.081 197" style="enable-background:new 0 0 431.081 197;" xml:space="preserve">
<style type="text/css">
	.text-aside, .text-bottom{display:none;}
	.st1{display:inline;}
	.st2{fill:#222221;}
	.st3{fill:#C10E19;}
	.st4{fill:#599DDF;}

	@media screen and (min-width: 100px) {
		.text-bottom {display: block}
	}
	@media screen and (min-width: 250px) {
		.text-bottom {display: none}
		.text-aside {display: block}
	}
</style>
<g id="sui-bottom" class="text-bottom">
	<g class="st1">
		<path class="st2" d="M18.359,136.24c-0.199,0.32-0.409,0.56-0.63,0.72c-0.22,0.16-0.503,0.24-0.85,0.24
			c-0.307,0-0.637-0.097-0.99-0.29s-0.753-0.41-1.2-0.65c-0.446-0.24-0.957-0.457-1.529-0.65c-0.574-0.193-1.228-0.29-1.96-0.29
			c-1.268,0-2.211,0.27-2.83,0.81c-0.62,0.54-0.931,1.27-0.931,2.19c0,0.587,0.187,1.074,0.561,1.46c0.373,0.387,0.863,0.72,1.47,1
			c0.606,0.28,1.3,0.537,2.08,0.77c0.78,0.233,1.576,0.494,2.39,0.78s1.61,0.624,2.391,1.01c0.779,0.387,1.473,0.88,2.08,1.48
			c0.606,0.6,1.096,1.33,1.47,2.19c0.373,0.86,0.56,1.897,0.56,3.11c0,1.347-0.233,2.607-0.7,3.78
			c-0.467,1.173-1.143,2.197-2.029,3.07c-0.887,0.874-1.98,1.56-3.28,2.06s-2.776,0.75-4.43,0.75c-0.907,0-1.83-0.093-2.771-0.28
			c-0.939-0.187-1.85-0.45-2.729-0.79s-1.707-0.743-2.48-1.21s-1.446-0.987-2.02-1.56l2-3.16c0.146-0.24,0.353-0.433,0.62-0.58
			c0.267-0.147,0.553-0.22,0.859-0.22c0.4,0,0.804,0.127,1.21,0.38c0.407,0.253,0.867,0.534,1.38,0.84
			c0.514,0.307,1.104,0.586,1.771,0.84c0.666,0.253,1.453,0.38,2.36,0.38c1.227,0,2.18-0.27,2.859-0.81s1.021-1.396,1.021-2.57
			c0-0.68-0.188-1.233-0.561-1.66c-0.373-0.426-0.863-0.78-1.47-1.06c-0.607-0.28-1.297-0.526-2.07-0.74s-1.566-0.45-2.38-0.71
			c-0.813-0.26-1.606-0.58-2.38-0.96c-0.773-0.38-1.464-0.88-2.07-1.5c-0.606-0.62-1.097-1.394-1.47-2.32
			c-0.373-0.926-0.56-2.07-0.56-3.43c0-1.093,0.22-2.16,0.659-3.2c0.44-1.04,1.087-1.967,1.94-2.78c0.854-0.813,1.9-1.463,3.14-1.95
			C8.1,130.243,9.52,130,11.12,130c0.893,0,1.763,0.07,2.609,0.21s1.65,0.347,2.41,0.62s1.47,0.6,2.13,0.98s1.25,0.81,1.771,1.29
			L18.359,136.24z"/>
		<path class="st2" d="M42.38,151.92c0.159,0,0.319,0.03,0.479,0.09c0.16,0.06,0.313,0.164,0.46,0.31l2.68,2.82
			c-1.173,1.533-2.643,2.69-4.409,3.47c-1.768,0.78-3.857,1.17-6.271,1.17c-2.213,0-4.197-0.376-5.95-1.13
			c-1.753-0.753-3.239-1.793-4.46-3.12c-1.22-1.326-2.156-2.9-2.81-4.72c-0.653-1.82-0.98-3.797-0.98-5.93
			c0-2.173,0.373-4.17,1.12-5.99c0.747-1.82,1.79-3.39,3.13-4.71c1.34-1.32,2.943-2.347,4.811-3.08c1.866-0.733,3.927-1.1,6.18-1.1
			c1.093,0,2.123,0.097,3.09,0.29s1.87,0.46,2.71,0.8c0.84,0.34,1.613,0.747,2.32,1.22c0.706,0.473,1.333,0.997,1.88,1.57
			l-2.28,3.06c-0.146,0.187-0.319,0.357-0.52,0.51s-0.48,0.23-0.84,0.23c-0.24,0-0.467-0.053-0.681-0.16
			c-0.213-0.106-0.439-0.237-0.68-0.39c-0.24-0.153-0.503-0.32-0.79-0.5c-0.287-0.18-0.627-0.347-1.02-0.5
			c-0.394-0.153-0.854-0.283-1.381-0.39c-0.526-0.106-1.143-0.16-1.85-0.16c-1.227,0-2.347,0.217-3.36,0.65
			c-1.013,0.434-1.883,1.053-2.609,1.86c-0.728,0.807-1.294,1.784-1.7,2.93c-0.407,1.147-0.61,2.434-0.61,3.86
			c0,1.494,0.203,2.82,0.61,3.98c0.406,1.16,0.96,2.137,1.66,2.93c0.7,0.793,1.517,1.397,2.45,1.81c0.933,0.413,1.933,0.62,3,0.62
			c0.612,0,1.173-0.03,1.68-0.09s0.977-0.163,1.41-0.31c0.433-0.146,0.847-0.336,1.24-0.57c0.393-0.233,0.79-0.523,1.189-0.87
			c0.16-0.133,0.333-0.243,0.521-0.33C41.986,151.963,42.18,151.92,42.38,151.92z"/>
		<path class="st2" d="M73.52,159.46h-6.8v-12.32H54.88v12.32h-6.8v-29.14h6.8v12.18h11.84v-12.18h6.8V159.46z"/>
		<path class="st2" d="M84.719,159.46h-6.8v-29.14h6.8V159.46z"/>
		<path class="st2" d="M89.119,159.46v-29.14h10.72c2.013,0,3.727,0.187,5.14,0.56c1.413,0.374,2.566,0.9,3.46,1.58
			s1.543,1.507,1.95,2.48c0.406,0.974,0.61,2.06,0.61,3.26c0,0.653-0.094,1.283-0.28,1.89c-0.187,0.607-0.48,1.177-0.88,1.71
			c-0.4,0.534-0.913,1.017-1.54,1.45c-0.627,0.434-1.38,0.81-2.26,1.13c1.92,0.467,3.34,1.224,4.26,2.27
			c0.92,1.047,1.38,2.39,1.38,4.03c0,1.24-0.24,2.393-0.72,3.46c-0.48,1.067-1.184,1.997-2.11,2.79s-2.07,1.413-3.43,1.86
			c-1.36,0.447-2.914,0.67-4.66,0.67H89.119z M95.879,142.58h3.52c0.747,0,1.42-0.053,2.021-0.16c0.6-0.106,1.109-0.293,1.53-0.56
			c0.42-0.267,0.739-0.633,0.96-1.1c0.22-0.466,0.329-1.053,0.329-1.76c0-0.693-0.086-1.27-0.26-1.73
			c-0.173-0.46-0.439-0.83-0.8-1.11c-0.36-0.28-0.816-0.48-1.37-0.6s-1.21-0.18-1.97-0.18h-3.96V142.58z M95.879,147.1v7.26h4.76
			c0.894,0,1.623-0.113,2.19-0.34c0.566-0.227,1.01-0.52,1.33-0.88c0.319-0.36,0.54-0.767,0.659-1.22
			c0.12-0.453,0.181-0.913,0.181-1.38c0-0.533-0.07-1.013-0.21-1.44c-0.141-0.427-0.38-0.787-0.721-1.08
			c-0.34-0.293-0.79-0.52-1.35-0.68c-0.56-0.16-1.267-0.24-2.12-0.24H95.879z"/>
		<path class="st2" d="M130.598,136.24c-0.199,0.32-0.409,0.56-0.63,0.72c-0.22,0.16-0.503,0.24-0.85,0.24
			c-0.307,0-0.637-0.097-0.99-0.29s-0.753-0.41-1.2-0.65c-0.446-0.24-0.957-0.457-1.529-0.65c-0.574-0.193-1.228-0.29-1.96-0.29
			c-1.268,0-2.211,0.27-2.83,0.81c-0.62,0.54-0.931,1.27-0.931,2.19c0,0.587,0.187,1.074,0.561,1.46c0.373,0.387,0.863,0.72,1.47,1
			c0.606,0.28,1.3,0.537,2.08,0.77c0.78,0.233,1.576,0.494,2.39,0.78s1.61,0.624,2.391,1.01c0.779,0.387,1.473,0.88,2.08,1.48
			c0.606,0.6,1.096,1.33,1.47,2.19c0.373,0.86,0.56,1.897,0.56,3.11c0,1.347-0.233,2.607-0.7,3.78
			c-0.467,1.173-1.143,2.197-2.029,3.07c-0.887,0.874-1.98,1.56-3.28,2.06s-2.776,0.75-4.43,0.75c-0.907,0-1.83-0.093-2.771-0.28
			c-0.939-0.187-1.85-0.45-2.729-0.79s-1.707-0.743-2.48-1.21s-1.446-0.987-2.02-1.56l2-3.16c0.146-0.24,0.353-0.433,0.62-0.58
			c0.267-0.147,0.553-0.22,0.859-0.22c0.4,0,0.804,0.127,1.21,0.38c0.407,0.253,0.867,0.534,1.38,0.84
			c0.514,0.307,1.104,0.586,1.771,0.84c0.666,0.253,1.453,0.38,2.36,0.38c1.227,0,2.18-0.27,2.859-0.81s1.021-1.396,1.021-2.57
			c0-0.68-0.188-1.233-0.561-1.66c-0.373-0.426-0.863-0.78-1.47-1.06c-0.607-0.28-1.297-0.526-2.07-0.74s-1.566-0.45-2.38-0.71
			c-0.813-0.26-1.606-0.58-2.38-0.96c-0.773-0.38-1.464-0.88-2.07-1.5c-0.606-0.62-1.097-1.394-1.47-2.32
			c-0.373-0.926-0.56-2.07-0.56-3.43c0-1.093,0.22-2.16,0.659-3.2c0.44-1.04,1.087-1.967,1.94-2.78c0.854-0.813,1.9-1.463,3.14-1.95
			c1.24-0.487,2.66-0.73,4.261-0.73c0.893,0,1.763,0.07,2.609,0.21s1.65,0.347,2.41,0.62s1.47,0.6,2.13,0.98s1.25,0.81,1.771,1.29
			L130.598,136.24z"/>
		<path class="st2" d="M156.197,130.32v5.36h-8.199v23.78h-6.761v-23.78h-8.199v-5.36H156.197z"/>
		<path class="st2" d="M176.759,130.32v5.2h-11.96v6.8h9.16v5h-9.16v6.94h11.96v5.2h-18.76v-29.14H176.759z"/>
		<path class="st2" d="M206.037,144.88c0,2.107-0.363,4.05-1.09,5.83s-1.75,3.32-3.07,4.62c-1.319,1.3-2.91,2.313-4.77,3.04
			c-1.86,0.727-3.924,1.09-6.19,1.09h-11.319v-29.14h11.319c2.267,0,4.33,0.367,6.19,1.1c1.859,0.733,3.45,1.747,4.77,3.04
			c1.32,1.293,2.344,2.83,3.07,4.61C205.674,140.85,206.037,142.787,206.037,144.88z M199.117,144.88c0-1.44-0.187-2.74-0.56-3.9
			c-0.374-1.16-0.91-2.143-1.61-2.95c-0.7-0.806-1.557-1.426-2.57-1.86c-1.013-0.433-2.167-0.65-3.46-0.65h-4.52v18.74h4.52
			c1.293,0,2.447-0.216,3.46-0.65c1.014-0.433,1.87-1.053,2.57-1.86s1.236-1.79,1.61-2.95
			C198.931,147.64,199.117,146.333,199.117,144.88z"/>
		<path class="st2" d="M14.239,191.34c0.907,0,1.717-0.15,2.431-0.45c0.713-0.3,1.316-0.73,1.81-1.29s0.87-1.243,1.13-2.05
			C19.87,186.744,20,185.827,20,184.8v-17.26h6.76v17.26c0,1.787-0.29,3.427-0.87,4.92s-1.41,2.78-2.49,3.86s-2.394,1.92-3.939,2.52
			c-1.547,0.6-3.287,0.9-5.221,0.9c-1.946,0-3.693-0.3-5.239-0.9c-1.547-0.6-2.86-1.44-3.94-2.52s-1.906-2.367-2.479-3.86
			c-0.574-1.493-0.86-3.133-0.86-4.92v-17.26h6.76v17.24c0,1.027,0.13,1.943,0.391,2.75c0.26,0.807,0.636,1.493,1.13,2.06
			c0.493,0.567,1.097,1,1.81,1.3S13.333,191.34,14.239,191.34z"/>
		<path class="st2" d="M37.56,196.68h-6.8v-29.14h6.8V196.68z"/>
		<path class="st2" d="M67.439,167.54v5.2h-11.96v6.8h9.16v5h-9.16v6.94h11.96v5.2H48.68v-29.14H67.439z"/>
		<path class="st2" d="M74.579,167.58c0.2,0.027,0.38,0.077,0.54,0.15c0.16,0.074,0.312,0.177,0.46,0.31
			c0.146,0.134,0.312,0.313,0.5,0.54l13.84,17.5c-0.054-0.56-0.094-1.103-0.12-1.63c-0.026-0.526-0.04-1.023-0.04-1.49v-15.42h5.96
			v29.14h-3.52c-0.521,0-0.96-0.08-1.32-0.24c-0.36-0.16-0.707-0.453-1.04-0.88l-13.74-17.36c0.04,0.507,0.073,1.003,0.101,1.49
			c0.026,0.487,0.04,0.944,0.04,1.37v15.62h-5.96v-29.14h3.56C74.132,167.54,74.379,167.554,74.579,167.58z"/>
		<path class="st2" d="M113.238,191.8c0.933,0,1.76-0.08,2.479-0.24c0.721-0.16,1.4-0.373,2.04-0.64v-4.42h-2.88
			c-0.427,0-0.76-0.113-1-0.34c-0.24-0.227-0.359-0.513-0.359-0.86v-3.72h10.359v12.3c-0.747,0.547-1.523,1.017-2.33,1.41
			c-0.807,0.394-1.667,0.717-2.58,0.97s-1.887,0.44-2.92,0.56c-1.033,0.12-2.144,0.18-3.33,0.18c-2.133,0-4.106-0.376-5.92-1.13
			c-1.813-0.753-3.383-1.793-4.71-3.12c-1.326-1.326-2.366-2.9-3.12-4.72c-0.753-1.82-1.13-3.797-1.13-5.93
			c0-2.173,0.36-4.17,1.08-5.99c0.72-1.82,1.75-3.39,3.09-4.71c1.341-1.32,2.96-2.347,4.86-3.08s4.023-1.1,6.37-1.1
			c1.213,0,2.353,0.1,3.42,0.3c1.066,0.2,2.05,0.474,2.95,0.82c0.899,0.347,1.723,0.76,2.47,1.24s1.413,1,2,1.56l-1.96,2.98
			c-0.187,0.28-0.41,0.5-0.67,0.66c-0.26,0.16-0.544,0.24-0.85,0.24c-0.4,0-0.813-0.133-1.24-0.4c-0.533-0.32-1.037-0.597-1.51-0.83
			c-0.474-0.233-0.957-0.423-1.45-0.57c-0.494-0.146-1.014-0.253-1.561-0.32s-1.16-0.1-1.84-0.1c-1.267,0-2.407,0.223-3.42,0.67
			c-1.014,0.447-1.877,1.077-2.59,1.89c-0.714,0.813-1.264,1.79-1.65,2.93c-0.387,1.14-0.58,2.41-0.58,3.81
			c0,1.547,0.214,2.92,0.641,4.12s1.017,2.213,1.77,3.04s1.646,1.457,2.681,1.89C110.881,191.583,112.012,191.8,113.238,191.8z"/>
		<path class="st2" d="M134.397,196.68h-6.8v-29.14h6.8V196.68z"/>
		<path class="st2" d="M143.098,167.58c0.2,0.027,0.38,0.077,0.54,0.15c0.16,0.074,0.312,0.177,0.46,0.31
			c0.146,0.134,0.312,0.313,0.5,0.54l13.84,17.5c-0.054-0.56-0.094-1.103-0.12-1.63c-0.026-0.526-0.04-1.023-0.04-1.49v-15.42h5.96
			v29.14h-3.52c-0.521,0-0.96-0.08-1.32-0.24c-0.36-0.16-0.707-0.453-1.04-0.88l-13.74-17.36c0.04,0.507,0.073,1.003,0.101,1.49
			c0.026,0.487,0.04,0.944,0.04,1.37v15.62h-5.96v-29.14h3.56C142.65,167.54,142.897,167.554,143.098,167.58z"/>
		<path class="st2" d="M187.431,167.54v5.2h-11.96v6.8h9.16v5h-9.16v6.94h11.96v5.2h-18.76v-29.14H187.431z"/>
		<path class="st2" d="M209.031,167.54v5.2h-11.96v6.8h9.16v5h-9.16v6.94h11.96v5.2h-18.76v-29.14H209.031z"/>
		<path class="st2" d="M218.629,185.9v10.78h-6.76v-29.14h9.479c2.106,0,3.903,0.217,5.39,0.65c1.487,0.434,2.7,1.037,3.641,1.81
			c0.939,0.773,1.623,1.687,2.05,2.74s0.64,2.2,0.64,3.44c0,0.947-0.127,1.84-0.38,2.68c-0.253,0.84-0.63,1.617-1.13,2.33
			c-0.5,0.714-1.113,1.35-1.84,1.91s-1.563,1.02-2.51,1.38c0.453,0.227,0.876,0.507,1.27,0.84s0.736,0.74,1.03,1.22l6.2,10.14h-6.12
			c-1.134,0-1.947-0.427-2.44-1.28l-4.84-8.46c-0.213-0.373-0.463-0.64-0.75-0.8s-0.689-0.24-1.21-0.24H218.629z M218.629,181.24
			h2.72c0.92,0,1.703-0.117,2.351-0.35c0.646-0.233,1.176-0.557,1.59-0.97c0.413-0.414,0.713-0.897,0.899-1.45s0.28-1.15,0.28-1.79
			c0-1.28-0.417-2.28-1.25-3s-2.123-1.08-3.87-1.08h-2.72V181.24z"/>
		<path class="st2" d="M253.709,173.46c-0.199,0.32-0.409,0.56-0.63,0.72c-0.22,0.16-0.503,0.24-0.85,0.24
			c-0.307,0-0.637-0.097-0.99-0.29s-0.753-0.41-1.2-0.65c-0.446-0.24-0.957-0.457-1.529-0.65c-0.574-0.193-1.228-0.29-1.96-0.29
			c-1.268,0-2.211,0.27-2.83,0.81c-0.62,0.54-0.931,1.27-0.931,2.19c0,0.587,0.187,1.074,0.561,1.46c0.373,0.387,0.863,0.72,1.47,1
			c0.606,0.28,1.3,0.537,2.08,0.77c0.78,0.233,1.576,0.494,2.39,0.78s1.61,0.624,2.391,1.01c0.779,0.387,1.473,0.88,2.08,1.48
			c0.606,0.6,1.096,1.33,1.47,2.19c0.373,0.86,0.56,1.897,0.56,3.11c0,1.347-0.233,2.607-0.7,3.78
			c-0.467,1.173-1.143,2.197-2.029,3.07c-0.887,0.874-1.98,1.56-3.28,2.06s-2.776,0.75-4.43,0.75c-0.907,0-1.83-0.093-2.771-0.28
			c-0.939-0.187-1.85-0.45-2.729-0.79s-1.707-0.743-2.48-1.21s-1.446-0.987-2.02-1.56l2-3.16c0.146-0.24,0.353-0.433,0.62-0.58
			c0.267-0.147,0.553-0.22,0.859-0.22c0.4,0,0.804,0.127,1.21,0.38c0.407,0.253,0.867,0.534,1.38,0.84
			c0.514,0.307,1.104,0.586,1.771,0.84c0.666,0.253,1.453,0.38,2.36,0.38c1.227,0,2.18-0.27,2.859-0.81s1.021-1.396,1.021-2.57
			c0-0.68-0.188-1.233-0.561-1.66c-0.373-0.426-0.863-0.78-1.47-1.06c-0.607-0.28-1.297-0.526-2.07-0.74s-1.566-0.45-2.38-0.71
			c-0.813-0.26-1.606-0.58-2.38-0.96c-0.773-0.38-1.464-0.88-2.07-1.5c-0.606-0.62-1.097-1.394-1.47-2.32
			c-0.373-0.926-0.56-2.07-0.56-3.43c0-1.093,0.22-2.16,0.659-3.2c0.44-1.04,1.087-1.967,1.94-2.78c0.854-0.813,1.9-1.463,3.14-1.95
			c1.24-0.487,2.66-0.73,4.261-0.73c0.893,0,1.763,0.07,2.609,0.21s1.65,0.347,2.41,0.62s1.47,0.6,2.13,0.98s1.25,0.81,1.771,1.29
			L253.709,173.46z"/>
	</g>
</g>
<g id="sui-side" class="text-aside">
	<g class="st1">
		<path class="st2" d="M193.359,36.24c-0.199,0.32-0.409,0.56-0.63,0.72c-0.22,0.16-0.503,0.24-0.85,0.24
			c-0.307,0-0.637-0.097-0.99-0.29s-0.753-0.41-1.2-0.65c-0.446-0.24-0.957-0.457-1.529-0.65c-0.574-0.193-1.228-0.29-1.96-0.29
			c-1.268,0-2.211,0.27-2.83,0.81c-0.62,0.54-0.931,1.27-0.931,2.19c0,0.587,0.187,1.074,0.561,1.46c0.373,0.387,0.863,0.72,1.47,1
			c0.606,0.28,1.3,0.537,2.08,0.77c0.78,0.233,1.576,0.494,2.39,0.78s1.61,0.624,2.391,1.01c0.779,0.387,1.473,0.88,2.08,1.48
			c0.606,0.6,1.096,1.33,1.47,2.19c0.373,0.86,0.56,1.897,0.56,3.11c0,1.347-0.233,2.607-0.7,3.78
			c-0.467,1.173-1.143,2.197-2.029,3.07c-0.887,0.874-1.98,1.56-3.28,2.06s-2.776,0.75-4.43,0.75c-0.907,0-1.83-0.093-2.771-0.28
			c-0.939-0.187-1.85-0.45-2.729-0.79s-1.707-0.743-2.48-1.21s-1.446-0.987-2.02-1.56l2-3.16c0.146-0.24,0.353-0.433,0.62-0.58
			c0.267-0.147,0.553-0.22,0.859-0.22c0.4,0,0.804,0.127,1.21,0.38c0.407,0.253,0.867,0.534,1.38,0.84
			c0.514,0.307,1.104,0.586,1.771,0.84c0.666,0.253,1.453,0.38,2.36,0.38c1.227,0,2.18-0.27,2.859-0.81s1.021-1.396,1.021-2.57
			c0-0.68-0.188-1.233-0.561-1.66c-0.373-0.426-0.863-0.78-1.47-1.06c-0.607-0.28-1.297-0.526-2.07-0.74s-1.566-0.45-2.38-0.71
			c-0.813-0.26-1.606-0.58-2.38-0.96c-0.773-0.38-1.464-0.88-2.07-1.5c-0.606-0.62-1.097-1.394-1.47-2.32
			c-0.373-0.926-0.56-2.07-0.56-3.43c0-1.093,0.22-2.16,0.659-3.2c0.44-1.04,1.087-1.967,1.94-2.78c0.854-0.813,1.9-1.463,3.14-1.95
			c1.24-0.487,2.66-0.73,4.261-0.73c0.893,0,1.763,0.07,2.609,0.21s1.65,0.347,2.41,0.62s1.47,0.6,2.13,0.98s1.25,0.81,1.771,1.29
			L193.359,36.24z"/>
		<path class="st2" d="M217.38,51.92c0.159,0,0.319,0.03,0.479,0.09c0.16,0.06,0.313,0.164,0.46,0.31l2.68,2.82
			c-1.173,1.533-2.643,2.69-4.409,3.47c-1.768,0.78-3.857,1.17-6.271,1.17c-2.213,0-4.197-0.376-5.95-1.13
			c-1.753-0.753-3.239-1.793-4.46-3.12c-1.22-1.326-2.156-2.9-2.81-4.72c-0.653-1.82-0.98-3.797-0.98-5.93
			c0-2.173,0.373-4.17,1.12-5.99c0.747-1.82,1.79-3.39,3.13-4.71c1.34-1.32,2.943-2.347,4.811-3.08c1.866-0.733,3.927-1.1,6.18-1.1
			c1.093,0,2.123,0.097,3.09,0.29s1.87,0.46,2.71,0.8c0.84,0.34,1.613,0.747,2.32,1.22c0.706,0.473,1.333,0.997,1.88,1.57
			l-2.28,3.06c-0.146,0.187-0.319,0.357-0.52,0.51s-0.48,0.23-0.84,0.23c-0.24,0-0.467-0.053-0.681-0.16
			c-0.213-0.106-0.439-0.237-0.68-0.39c-0.24-0.153-0.503-0.32-0.79-0.5c-0.287-0.18-0.627-0.347-1.02-0.5
			c-0.394-0.153-0.854-0.283-1.381-0.39c-0.526-0.106-1.143-0.16-1.85-0.16c-1.227,0-2.347,0.217-3.36,0.65
			c-1.013,0.434-1.883,1.053-2.609,1.86c-0.728,0.807-1.294,1.784-1.7,2.93c-0.407,1.147-0.61,2.434-0.61,3.86
			c0,1.494,0.203,2.82,0.61,3.98c0.406,1.16,0.96,2.137,1.66,2.93c0.7,0.793,1.517,1.397,2.45,1.81c0.933,0.413,1.933,0.62,3,0.62
			c0.612,0,1.173-0.03,1.68-0.09s0.977-0.163,1.41-0.31c0.433-0.146,0.847-0.336,1.24-0.57c0.393-0.233,0.79-0.523,1.189-0.87
			c0.16-0.133,0.333-0.243,0.521-0.33C216.986,51.963,217.18,51.92,217.38,51.92z"/>
		<path class="st2" d="M248.52,59.46h-6.8V47.14h-11.84v12.32h-6.8V30.32h6.8V42.5h11.84V30.32h6.8V59.46z"/>
		<path class="st2" d="M259.719,59.46h-6.8V30.32h6.8V59.46z"/>
		<path class="st2" d="M264.119,59.46V30.32h10.72c2.013,0,3.727,0.187,5.14,0.56c1.413,0.374,2.566,0.9,3.46,1.58
			s1.543,1.507,1.95,2.48c0.406,0.974,0.61,2.06,0.61,3.26c0,0.653-0.094,1.283-0.28,1.89c-0.187,0.607-0.48,1.177-0.88,1.71
			c-0.4,0.534-0.913,1.017-1.54,1.45c-0.627,0.434-1.38,0.81-2.26,1.13c1.92,0.467,3.34,1.224,4.26,2.27
			c0.92,1.047,1.38,2.39,1.38,4.03c0,1.24-0.24,2.393-0.72,3.46c-0.48,1.067-1.184,1.997-2.11,2.79s-2.07,1.413-3.43,1.86
			c-1.36,0.447-2.914,0.67-4.66,0.67H264.119z M270.879,42.58h3.52c0.747,0,1.42-0.053,2.021-0.16c0.6-0.106,1.109-0.293,1.53-0.56
			c0.42-0.267,0.739-0.633,0.96-1.1c0.22-0.466,0.329-1.053,0.329-1.76c0-0.693-0.086-1.27-0.26-1.73
			c-0.173-0.46-0.439-0.83-0.8-1.11c-0.36-0.28-0.816-0.48-1.37-0.6s-1.21-0.18-1.97-0.18h-3.96V42.58z M270.879,47.1v7.26h4.76
			c0.894,0,1.623-0.113,2.19-0.34c0.566-0.227,1.01-0.52,1.33-0.88c0.319-0.36,0.54-0.767,0.659-1.22
			c0.12-0.453,0.181-0.913,0.181-1.38c0-0.533-0.07-1.013-0.21-1.44c-0.141-0.427-0.38-0.787-0.721-1.08
			c-0.34-0.293-0.79-0.52-1.35-0.68c-0.56-0.16-1.267-0.24-2.12-0.24H270.879z"/>
		<path class="st2" d="M305.598,36.24c-0.199,0.32-0.409,0.56-0.63,0.72c-0.22,0.16-0.503,0.24-0.85,0.24
			c-0.307,0-0.637-0.097-0.99-0.29s-0.753-0.41-1.2-0.65c-0.446-0.24-0.957-0.457-1.529-0.65c-0.574-0.193-1.228-0.29-1.96-0.29
			c-1.268,0-2.211,0.27-2.83,0.81c-0.62,0.54-0.931,1.27-0.931,2.19c0,0.587,0.187,1.074,0.561,1.46c0.373,0.387,0.863,0.72,1.47,1
			c0.606,0.28,1.3,0.537,2.08,0.77c0.78,0.233,1.576,0.494,2.39,0.78s1.61,0.624,2.391,1.01c0.779,0.387,1.473,0.88,2.08,1.48
			c0.606,0.6,1.096,1.33,1.47,2.19c0.373,0.86,0.56,1.897,0.56,3.11c0,1.347-0.233,2.607-0.7,3.78
			c-0.467,1.173-1.143,2.197-2.029,3.07c-0.887,0.874-1.98,1.56-3.28,2.06s-2.776,0.75-4.43,0.75c-0.907,0-1.83-0.093-2.771-0.28
			c-0.939-0.187-1.85-0.45-2.729-0.79s-1.707-0.743-2.48-1.21s-1.446-0.987-2.02-1.56l2-3.16c0.146-0.24,0.353-0.433,0.62-0.58
			c0.267-0.147,0.553-0.22,0.859-0.22c0.4,0,0.804,0.127,1.21,0.38c0.407,0.253,0.867,0.534,1.38,0.84
			c0.514,0.307,1.104,0.586,1.771,0.84c0.666,0.253,1.453,0.38,2.36,0.38c1.227,0,2.18-0.27,2.859-0.81s1.021-1.396,1.021-2.57
			c0-0.68-0.188-1.233-0.561-1.66c-0.373-0.426-0.863-0.78-1.47-1.06c-0.607-0.28-1.297-0.526-2.07-0.74s-1.566-0.45-2.38-0.71
			c-0.813-0.26-1.606-0.58-2.38-0.96c-0.773-0.38-1.464-0.88-2.07-1.5c-0.606-0.62-1.097-1.394-1.47-2.32
			c-0.373-0.926-0.56-2.07-0.56-3.43c0-1.093,0.22-2.16,0.659-3.2c0.44-1.04,1.087-1.967,1.94-2.78c0.854-0.813,1.9-1.463,3.14-1.95
			c1.24-0.487,2.66-0.73,4.261-0.73c0.893,0,1.763,0.07,2.609,0.21s1.65,0.347,2.41,0.62s1.47,0.6,2.13,0.98s1.25,0.81,1.771,1.29
			L305.598,36.24z"/>
		<path class="st2" d="M331.197,30.32v5.36h-8.199v23.78h-6.761V35.68h-8.199v-5.36H331.197z"/>
		<path class="st2" d="M351.759,30.32v5.2h-11.96v6.8h9.16v5h-9.16v6.94h11.96v5.2h-18.76V30.32H351.759z"/>
		<path class="st2" d="M381.037,44.88c0,2.107-0.363,4.05-1.09,5.83s-1.75,3.32-3.07,4.62c-1.319,1.3-2.91,2.313-4.77,3.04
			c-1.86,0.727-3.924,1.09-6.19,1.09h-11.319V30.32h11.319c2.267,0,4.33,0.367,6.19,1.1c1.859,0.733,3.45,1.747,4.77,3.04
			c1.32,1.293,2.344,2.83,3.07,4.61C380.674,40.85,381.037,42.787,381.037,44.88z M374.117,44.88c0-1.44-0.187-2.74-0.56-3.9
			c-0.374-1.16-0.91-2.143-1.61-2.95c-0.7-0.806-1.557-1.426-2.57-1.86c-1.013-0.433-2.167-0.65-3.46-0.65h-4.52v18.74h4.52
			c1.293,0,2.447-0.216,3.46-0.65c1.014-0.433,1.87-1.053,2.57-1.86s1.236-1.79,1.61-2.95
			C373.931,47.64,374.117,46.333,374.117,44.88z"/>
		<path class="st2" d="M189.239,91.34c0.907,0,1.717-0.15,2.431-0.45c0.713-0.3,1.316-0.73,1.81-1.29s0.87-1.243,1.13-2.05
			C194.87,86.744,195,85.827,195,84.8V67.54h6.76V84.8c0,1.787-0.29,3.427-0.87,4.92s-1.41,2.78-2.49,3.86s-2.394,1.92-3.939,2.52
			c-1.547,0.6-3.287,0.9-5.221,0.9c-1.946,0-3.693-0.3-5.239-0.9c-1.547-0.6-2.86-1.44-3.94-2.52s-1.906-2.367-2.479-3.86
			c-0.574-1.493-0.86-3.133-0.86-4.92V67.54h6.76v17.24c0,1.027,0.13,1.943,0.391,2.75c0.26,0.807,0.636,1.493,1.13,2.06
			c0.493,0.567,1.097,1,1.81,1.3S188.333,91.34,189.239,91.34z"/>
		<path class="st2" d="M212.56,96.68h-6.8V67.54h6.8V96.68z"/>
		<path class="st2" d="M242.439,67.54v5.2h-11.96v6.8h9.16v5h-9.16v6.94h11.96v5.2h-18.76V67.54H242.439z"/>
		<path class="st2" d="M249.579,67.58c0.2,0.027,0.38,0.077,0.54,0.15c0.16,0.074,0.312,0.177,0.46,0.31
			c0.146,0.134,0.312,0.313,0.5,0.54l13.84,17.5c-0.054-0.56-0.094-1.103-0.12-1.63c-0.026-0.526-0.04-1.023-0.04-1.49V67.54h5.96
			v29.14h-3.52c-0.521,0-0.96-0.08-1.32-0.24c-0.36-0.16-0.707-0.453-1.04-0.88l-13.74-17.36c0.04,0.507,0.073,1.003,0.101,1.49
			c0.026,0.487,0.04,0.944,0.04,1.37v15.62h-5.96V67.54h3.56C249.132,67.54,249.379,67.554,249.579,67.58z"/>
		<path class="st2" d="M288.238,91.8c0.933,0,1.76-0.08,2.479-0.24c0.721-0.16,1.4-0.373,2.04-0.64V86.5h-2.88
			c-0.427,0-0.76-0.113-1-0.34c-0.24-0.227-0.359-0.513-0.359-0.86v-3.72h10.359v12.3c-0.747,0.547-1.523,1.017-2.33,1.41
			c-0.807,0.394-1.667,0.717-2.58,0.97s-1.887,0.44-2.92,0.56c-1.033,0.12-2.144,0.18-3.33,0.18c-2.133,0-4.106-0.376-5.92-1.13
			c-1.813-0.753-3.383-1.793-4.71-3.12c-1.326-1.326-2.366-2.9-3.12-4.72c-0.753-1.82-1.13-3.797-1.13-5.93
			c0-2.173,0.36-4.17,1.08-5.99c0.72-1.82,1.75-3.39,3.09-4.71c1.341-1.32,2.96-2.347,4.86-3.08s4.023-1.1,6.37-1.1
			c1.213,0,2.353,0.1,3.42,0.3c1.066,0.2,2.05,0.474,2.95,0.82c0.899,0.347,1.723,0.76,2.47,1.24s1.413,1,2,1.56l-1.96,2.98
			c-0.187,0.28-0.41,0.5-0.67,0.66c-0.26,0.16-0.544,0.24-0.85,0.24c-0.4,0-0.813-0.133-1.24-0.4c-0.533-0.32-1.037-0.597-1.51-0.83
			c-0.474-0.233-0.957-0.423-1.45-0.57c-0.494-0.146-1.014-0.253-1.561-0.32s-1.16-0.1-1.84-0.1c-1.267,0-2.407,0.223-3.42,0.67
			c-1.014,0.447-1.877,1.077-2.59,1.89c-0.714,0.813-1.264,1.79-1.65,2.93c-0.387,1.14-0.58,2.41-0.58,3.81
			c0,1.547,0.214,2.92,0.641,4.12s1.017,2.213,1.77,3.04s1.646,1.457,2.681,1.89C285.881,91.583,287.012,91.8,288.238,91.8z"/>
		<path class="st2" d="M309.397,96.68h-6.8V67.54h6.8V96.68z"/>
		<path class="st2" d="M318.098,67.58c0.2,0.027,0.38,0.077,0.54,0.15c0.16,0.074,0.312,0.177,0.46,0.31
			c0.146,0.134,0.312,0.313,0.5,0.54l13.84,17.5c-0.054-0.56-0.094-1.103-0.12-1.63c-0.026-0.526-0.04-1.023-0.04-1.49V67.54h5.96
			v29.14h-3.52c-0.521,0-0.96-0.08-1.32-0.24c-0.36-0.16-0.707-0.453-1.04-0.88l-13.74-17.36c0.04,0.507,0.073,1.003,0.101,1.49
			c0.026,0.487,0.04,0.944,0.04,1.37v15.62h-5.96V67.54h3.56C317.65,67.54,317.897,67.554,318.098,67.58z"/>
		<path class="st2" d="M362.723,67.54v5.2h-11.96v6.8h9.16v5h-9.16v6.94h11.96v5.2h-18.76V67.54H362.723z"/>
		<path class="st2" d="M384.322,67.54v5.2h-11.96v6.8h9.16v5h-9.16v6.94h11.96v5.2h-18.76V67.54H384.322z"/>
		<path class="st2" d="M393.921,85.9v10.78h-6.76V67.54h9.479c2.106,0,3.903,0.217,5.39,0.65c1.487,0.434,2.7,1.037,3.641,1.81
			c0.939,0.773,1.623,1.687,2.05,2.74s0.64,2.2,0.64,3.44c0,0.947-0.127,1.84-0.38,2.68c-0.253,0.84-0.63,1.617-1.13,2.33
			c-0.5,0.714-1.113,1.35-1.84,1.91s-1.563,1.02-2.51,1.38c0.453,0.227,0.876,0.507,1.27,0.84s0.736,0.74,1.03,1.22l6.2,10.14h-6.12
			c-1.134,0-1.947-0.427-2.44-1.28l-4.84-8.46c-0.213-0.373-0.463-0.64-0.75-0.8s-0.689-0.24-1.21-0.24H393.921z M393.921,81.24
			h2.72c0.92,0,1.703-0.117,2.351-0.35c0.646-0.233,1.176-0.557,1.59-0.97c0.413-0.414,0.713-0.897,0.899-1.45s0.28-1.15,0.28-1.79
			c0-1.28-0.417-2.28-1.25-3s-2.123-1.08-3.87-1.08h-2.72V81.24z"/>
		<path class="st2" d="M429.001,73.46c-0.199,0.32-0.409,0.56-0.63,0.72c-0.22,0.16-0.503,0.24-0.85,0.24
			c-0.307,0-0.637-0.097-0.99-0.29s-0.753-0.41-1.2-0.65c-0.446-0.24-0.957-0.457-1.529-0.65c-0.574-0.193-1.228-0.29-1.96-0.29
			c-1.268,0-2.211,0.27-2.83,0.81c-0.62,0.54-0.931,1.27-0.931,2.19c0,0.587,0.187,1.074,0.561,1.46c0.373,0.387,0.863,0.72,1.47,1
			c0.606,0.28,1.3,0.537,2.08,0.77c0.78,0.233,1.576,0.494,2.39,0.78s1.61,0.624,2.391,1.01c0.779,0.387,1.473,0.88,2.08,1.48
			c0.606,0.6,1.096,1.33,1.47,2.19c0.373,0.86,0.56,1.897,0.56,3.11c0,1.347-0.233,2.607-0.7,3.78
			c-0.467,1.173-1.143,2.197-2.029,3.07c-0.887,0.874-1.98,1.56-3.28,2.06s-2.776,0.75-4.43,0.75c-0.907,0-1.83-0.093-2.771-0.28
			c-0.939-0.187-1.85-0.45-2.729-0.79s-1.707-0.743-2.48-1.21s-1.446-0.987-2.02-1.56l2-3.16c0.146-0.24,0.353-0.433,0.62-0.58
			c0.267-0.147,0.553-0.22,0.859-0.22c0.4,0,0.804,0.127,1.21,0.38c0.407,0.253,0.867,0.534,1.38,0.84
			c0.514,0.307,1.104,0.586,1.771,0.84c0.666,0.253,1.453,0.38,2.36,0.38c1.227,0,2.18-0.27,2.859-0.81s1.021-1.396,1.021-2.57
			c0-0.68-0.188-1.233-0.561-1.66c-0.373-0.426-0.863-0.78-1.47-1.06c-0.607-0.28-1.297-0.526-2.07-0.74s-1.566-0.45-2.38-0.71
			c-0.813-0.26-1.606-0.58-2.38-0.96c-0.773-0.38-1.464-0.88-2.07-1.5c-0.606-0.62-1.097-1.394-1.47-2.32
			c-0.373-0.926-0.56-2.07-0.56-3.43c0-1.093,0.22-2.16,0.659-3.2c0.44-1.04,1.087-1.967,1.94-2.78c0.854-0.813,1.9-1.463,3.14-1.95
			c1.24-0.487,2.66-0.73,4.261-0.73c0.893,0,1.763,0.07,2.609,0.21s1.65,0.347,2.41,0.62s1.47,0.6,2.13,0.98s1.25,0.81,1.771,1.29
			L429.001,73.46z"/>
	</g>
</g>
<g id="logo">
	<g>
		<g>
			<path class="st3" d="M72.16,109.038l-15.61,9.01c-2.43,1.4-5.42,1.4-7.85,0L3.93,92.197c-2.43-1.4-3.93-3.99-3.93-6.8v-51.7
				c0-2.8,1.5-5.39,3.93-6.8L48.7,1.058c2.43-1.41,5.42-1.41,7.85,0l15.6,9c-15.94,10.69-26.43,28.86-26.43,49.49
				C45.72,80.188,56.22,98.368,72.16,109.038z"/>
			<path class="st2" d="M105.25,33.697v51.7c0,2.81-1.5,5.4-3.93,6.8l-29.16,16.84c-15.94-10.67-26.44-28.85-26.44-49.49
				c0-20.63,10.49-38.8,26.43-49.49l29.17,16.84C103.75,28.308,105.25,30.897,105.25,33.697z"/>
			<path class="st4" d="M164.77,59.548c0,32.88-26.65,59.53-59.52,59.53c-12.24,0-23.62-3.69-33.09-10.04l29.16-16.84
				c2.43-1.4,3.93-3.99,3.93-6.8v-51.7c0-2.8-1.5-5.39-3.93-6.8l-29.17-16.84c9.47-6.33,20.85-10.03,33.1-10.03
				C138.12,0.027,164.77,26.678,164.77,59.548z"/>
		</g>
	</g>
</g>
</svg>
